<svg width="134" height="46" viewBox="0 0 134 46" fill="none" xmlns="http://www.w3.org/2000/svg">
    <rect x="1" y="1" width="132" height="44" rx="8" stroke="white" />
    <mask id="mask0_614_1899" style="mask-type:luminance" maskUnits="userSpaceOnUse" x="1" y="1" width="132"
        height="44">
        <path d="M1 1H132.67V45H1V1Z" fill="white" />
    </mask>
    <g mask="url(#mask0_614_1899)">
        <path
            d="M28.2806 23.3297C28.2821 22.4095 28.5145 21.5043 28.9565 20.6972C29.3985 19.89 30.036 19.2067 30.8106 18.7097C30.3099 18.0064 29.6507 17.4308 28.8863 17.0295C28.1219 16.6282 27.2738 16.4124 26.4106 16.3997C24.6506 16.1797 22.7806 17.4997 21.9006 17.4997C20.9106 17.4997 19.4806 16.3997 17.9406 16.3997C16.9177 16.4335 15.9218 16.7359 15.0529 17.2766C14.184 17.8172 13.4727 18.5771 12.9906 19.4797C10.7906 23.1097 12.4406 28.4997 14.4206 31.5797C15.5206 33.0097 16.6206 34.5497 18.2706 34.5497C19.8106 34.5497 20.3606 33.5597 22.2306 33.5597C23.9906 33.5597 24.5406 34.5497 26.0806 34.5497C27.7306 34.5497 28.8306 33.0097 29.8206 31.5797C30.4806 30.4797 31.0306 29.3797 31.4706 28.1697C30.5041 27.7789 29.6751 27.1107 29.0878 26.2494C28.5005 25.388 28.1814 24.3722 28.1706 23.3297H28.2806ZM25.2006 14.4197C26.0806 13.3197 26.5206 11.9997 26.5206 10.5697C25.4861 10.6761 24.503 11.0736 23.6852 11.7161C22.8675 12.3586 22.2487 13.2198 21.9006 14.1997C21.6806 14.8597 21.6806 15.5197 21.6806 16.1797C22.3532 16.1846 23.0184 16.039 23.6275 15.7535C24.2365 15.468 24.774 15.0499 25.2006 14.5297V14.4197ZM47.5306 30.8097H42.3606L41.0406 34.5497H38.8406L43.9006 20.9097H46.1006L51.1606 34.5497H48.9606L47.6406 30.8097H47.5306ZM42.9106 29.1597H46.9806L45.0006 22.9997H44.8906L42.9106 29.0497V29.1597ZM61.7206 29.5997C61.7206 32.6797 59.9606 34.6597 57.5406 34.6597C56.8948 34.7119 56.2479 34.5728 55.6807 34.2599C55.1134 33.9469 54.6508 33.4739 54.3506 32.8997V37.8497H52.2606V24.6497H54.2406V26.1897C54.5697 25.6159 55.0538 25.1465 55.6375 24.8352C56.2211 24.5239 56.8807 24.3834 57.5406 24.4297C59.9606 24.4297 61.7206 26.5197 61.7206 29.5997ZM59.5206 29.5997C59.5206 27.5097 58.5306 26.2997 56.9906 26.2997C55.3406 26.2997 54.3506 27.6197 54.3506 29.5997C54.3506 31.5797 55.4506 32.8997 56.9906 32.8997C58.5306 32.8997 59.5206 31.5797 59.5206 29.5997ZM72.6106 29.5997C72.6106 32.6797 70.9606 34.6597 68.4306 34.6597C67.8029 34.6901 67.1796 34.5406 66.634 34.2288C66.0883 33.917 65.6431 33.4559 65.3506 32.8997V37.8497H63.1506V24.6497H65.2406V26.1897C65.5697 25.6159 66.0538 25.1465 66.6375 24.8352C67.2211 24.5239 67.8807 24.3834 68.5406 24.4297C70.9606 24.4297 72.6106 26.5197 72.6106 29.5997ZM70.5206 29.5997C70.5206 27.5097 69.4206 26.2997 67.8806 26.2997C66.3406 26.2997 65.2406 27.6197 65.2406 29.5997C65.2406 31.5797 66.3406 32.8997 67.8806 32.8997C69.5306 32.8997 70.5206 31.5797 70.5206 29.5997ZM79.8706 30.6997C79.9806 32.1297 81.3006 32.8997 83.1706 32.8997C84.8206 32.8997 86.1406 32.1297 86.1406 30.9197C86.1406 29.8197 85.3706 29.1597 83.6106 28.7197L81.8506 28.2797C79.3206 27.7297 78.1106 26.5197 78.1106 24.6497C78.1106 22.2297 80.2006 20.6897 83.0606 20.6897C86.0306 20.6897 88.0106 22.2297 88.0106 24.6497H86.0306C85.8106 23.2197 84.7106 22.4497 83.0606 22.4497C81.4106 22.4497 80.3106 23.3297 80.3106 24.5397C80.3106 25.4197 80.9706 26.0797 82.7306 26.4097L84.2706 26.8497C87.1306 27.5097 88.2306 28.6097 88.2306 30.5897C88.2306 33.1197 86.2506 34.7697 82.9506 34.7697C79.9806 34.7697 77.8906 33.2297 77.7806 30.6997H79.8706ZM92.6306 22.2297V24.5397H94.6106V26.2997H92.6306V31.7997C92.6306 32.6797 93.0706 33.0097 93.8406 33.0097H94.6106V34.6597H93.5106C91.3106 34.6597 90.6506 33.9997 90.6506 32.0197V26.2997H89.2206V24.6497H90.6506V22.3397H92.6306V22.2297ZM95.6006 29.5997C95.6006 26.4097 97.4706 24.4297 100.441 24.4297C103.301 24.4297 105.171 26.4097 105.171 29.5997C105.171 32.6797 103.301 34.6597 100.441 34.6597C97.4706 34.6597 95.7106 32.6797 95.7106 29.5997H95.6006ZM103.081 29.5997C103.081 27.3997 101.981 26.1897 100.441 26.1897C98.7906 26.1897 97.8006 27.3997 97.8006 29.4897C97.8006 31.6897 98.7906 33.0097 100.441 33.0097C102.091 33.0097 103.081 31.6897 103.081 29.5997ZM106.821 24.5397H108.801V26.2997C108.927 25.7571 109.237 25.2747 109.678 24.934C110.119 24.5933 110.664 24.4152 111.221 24.4297L111.881 24.5397V26.5197L111.001 26.2997C110.697 26.282 110.394 26.3306 110.112 26.4419C109.829 26.5534 109.575 26.7249 109.365 26.9448C109.156 27.1647 108.997 27.4275 108.899 27.715C108.802 28.0026 108.768 28.3079 108.801 28.6097V34.5497H106.821V24.6497V24.5397ZM121.341 31.5797C121.011 33.4497 119.251 34.6597 116.941 34.6597C114.081 34.6597 112.321 32.6797 112.321 29.5997C112.321 26.5197 114.191 24.4297 116.941 24.4297C119.691 24.4297 121.341 26.4097 121.341 29.3797V30.0397H114.411V30.1497C114.38 30.5145 114.426 30.8816 114.545 31.2277C114.664 31.5739 114.853 31.8915 115.101 32.1604C115.35 32.4294 115.651 32.6438 115.987 32.79C116.322 32.9362 116.685 33.011 117.051 33.0097C117.54 33.0644 118.034 32.9532 118.453 32.6939C118.872 32.4346 119.191 32.0423 119.361 31.5797H121.341ZM114.411 28.6097H119.361C119.375 28.2828 119.324 27.9563 119.209 27.6498C119.094 27.3434 118.918 27.0635 118.692 26.827C118.466 26.5905 118.194 26.4023 117.893 26.2739C117.592 26.1455 117.268 26.0794 116.941 26.0797C116.27 26.0797 115.626 26.3463 115.152 26.8208C114.677 27.2952 114.411 27.9387 114.411 28.6097ZM42.5806 10.5697C43.0142 10.5308 43.451 10.5914 43.8577 10.7468C44.2644 10.9023 44.6302 11.1486 44.9272 11.4668C45.2243 11.7851 45.4448 12.167 45.5719 12.5835C45.699 12.9999 45.7293 13.4398 45.6606 13.8697C45.6606 15.9597 44.5606 17.1697 42.5806 17.1697H40.2706V10.5697H42.5806ZM41.2606 16.3997H42.4706C42.7842 16.4203 43.0985 16.3699 43.3899 16.2523C43.6814 16.1346 43.9425 15.9527 44.154 15.7201C44.3654 15.4875 44.5217 15.2103 44.6111 14.909C44.7005 14.6076 44.7209 14.29 44.6706 13.9797C44.703 13.6779 44.6694 13.3726 44.5719 13.085C44.4744 12.7975 44.3154 12.5347 44.106 12.3148C43.8966 12.0949 43.6418 11.9234 43.3594 11.812C43.077 11.7006 42.7737 11.652 42.4706 11.6697H41.2606V16.3997ZM46.8706 14.6397C46.8706 14.0271 47.1139 13.4395 47.5471 13.0063C47.9804 12.5731 48.5679 12.3297 49.1806 12.3297C49.7932 12.3297 50.3808 12.5731 50.814 13.0063C51.2472 13.4395 51.4906 14.0271 51.4906 14.6397C51.4906 15.2524 51.2472 15.84 50.814 16.2732C50.3808 16.7064 49.7932 16.9497 49.1806 16.9497C48.5679 16.9497 47.9804 16.7064 47.5471 16.2732C47.1139 15.84 46.8706 15.2524 46.8706 14.6397ZM50.5006 14.6397C50.5006 13.5397 50.0606 12.9897 49.1806 12.9897C48.3006 12.9897 47.8606 13.6497 47.8606 14.6397C47.8606 15.7397 48.3006 16.3997 49.1806 16.3997C50.0606 16.3997 50.5006 15.7397 50.5006 14.6397ZM57.7606 17.1697H56.6606L55.6706 13.5397L54.5706 17.1697H53.5806L52.2606 12.2197H53.2506L54.1306 15.9597L55.2306 12.2197H56.1106L57.2106 15.9597L58.0906 12.2197H59.1906L57.7606 17.1697ZM60.2906 12.2197H61.1706V12.9897C61.2908 12.6911 61.5082 12.4418 61.7876 12.2821C62.0671 12.1224 62.3923 12.0617 62.7106 12.1097C62.9561 12.091 63.2027 12.1275 63.4323 12.2165C63.6619 12.3055 63.8687 12.4448 64.0375 12.6241C64.2062 12.8034 64.3327 13.0183 64.4077 13.2528C64.4826 13.4874 64.5041 13.7358 64.4706 13.9797V17.1697H63.3706V14.1997C63.3706 13.4297 63.1506 13.0997 62.3806 13.0997C62.0888 13.0997 61.809 13.2156 61.6027 13.4219C61.3965 13.6282 61.2806 13.908 61.2806 14.1997V17.1697H60.1806V12.2197H60.2906ZM65.9006 10.2397H67.0006V17.1697H65.9006V10.2397ZM68.3206 14.6397C68.3206 14.0125 68.5697 13.411 69.0133 12.9674C69.4568 12.5239 70.0583 12.2747 70.6856 12.2747C71.3128 12.2747 71.9143 12.5239 72.3579 12.9674C72.8014 13.411 73.0506 14.0125 73.0506 14.6397C73.0506 15.267 72.8014 15.8685 72.3579 16.3121C71.9143 16.7556 71.3128 17.0047 70.6856 17.0047C70.0583 17.0047 69.4568 16.7556 69.0133 16.3121C68.5697 15.8685 68.3206 15.267 68.3206 14.6397ZM71.9506 14.6397C71.9506 13.5397 71.5106 12.9897 70.6306 12.9897C69.8606 12.9897 69.3106 13.6497 69.3106 14.6397C69.3106 15.7397 69.8606 16.3997 70.6306 16.3997C71.5106 16.3997 71.9506 15.7397 71.9506 14.6397ZM74.0406 15.7397C74.0406 14.8597 74.7006 14.3097 75.9106 14.3097H77.2306V13.7597C77.2306 13.2097 76.9006 12.9897 76.1306 12.9897C75.6906 12.9897 75.2506 13.2097 75.1406 13.5397H74.2606C74.2606 12.6597 75.1406 12.1097 76.2406 12.1097C77.4506 12.1097 78.2206 12.7697 78.2206 13.7597V17.1697H77.2306V16.5097C77.0696 16.7674 76.8407 16.9757 76.569 17.1115C76.2972 17.2474 75.9933 17.3056 75.6906 17.2797C75.4793 17.2949 75.2671 17.2663 75.0674 17.1957C74.8677 17.1251 74.6847 17.014 74.5298 16.8695C74.3749 16.725 74.2515 16.55 74.1674 16.3556C74.0832 16.1612 74.04 15.9516 74.0406 15.7397ZM77.2306 15.2997V14.9697H76.0206C75.3606 14.9697 75.0306 15.2997 75.0306 15.7397C75.0306 16.1797 75.4706 16.3997 75.9106 16.3997C76.0722 16.4328 76.2393 16.429 76.3993 16.3887C76.5593 16.3485 76.7082 16.2727 76.835 16.1671C76.9618 16.0614 77.0631 15.9286 77.1316 15.7785C77.2001 15.6283 77.2339 15.4647 77.2306 15.2997ZM79.4306 14.6397C79.4306 13.0997 80.3106 12.1097 81.6306 12.1097C81.9259 12.115 82.2143 12.1995 82.4659 12.3542C82.7174 12.509 82.9228 12.7285 83.0606 12.9897V10.2397H84.1606V17.1697H83.1706V16.3997C83.006 16.6866 82.7639 16.9214 82.4721 17.077C82.1803 17.2327 81.8505 17.3029 81.5206 17.2797C80.3106 17.2797 79.4306 16.1797 79.4306 14.6397ZM80.5306 14.6397C80.5306 15.7397 80.9706 16.3997 81.8506 16.3997C82.6206 16.3997 83.1706 15.7397 83.1706 14.6397C83.1706 13.6497 82.6206 12.9897 81.8506 12.9897C80.9706 12.9897 80.5306 13.6497 80.5306 14.6397ZM88.1206 14.6397C88.1206 14.0125 88.3697 13.411 88.8133 12.9674C89.2568 12.5239 89.8583 12.2747 90.4856 12.2747C91.1128 12.2747 91.7143 12.5239 92.1579 12.9674C92.6014 13.411 92.8506 14.0125 92.8506 14.6397C92.8506 15.267 92.6014 15.8685 92.1579 16.3121C91.7143 16.7556 91.1128 17.0047 90.4856 17.0047C89.8583 17.0047 89.2568 16.7556 88.8133 16.3121C88.3697 15.8685 88.1206 15.267 88.1206 14.6397ZM91.8606 14.6397C91.8606 13.5397 91.3106 12.9897 90.5406 12.9897C89.6606 12.9897 89.1106 13.6497 89.1106 14.6397C89.1106 15.7397 89.6606 16.3997 90.5406 16.3997C91.3106 16.3997 91.8606 15.7397 91.8606 14.6397ZM94.1706 12.2197H95.0506V12.9897C95.1708 12.6911 95.3882 12.4418 95.6676 12.2821C95.9471 12.1224 96.2723 12.0617 96.5906 12.1097C96.8361 12.091 97.0827 12.1275 97.3123 12.2165C97.5419 12.3055 97.7487 12.4448 97.9175 12.6241C98.0863 12.8034 98.2127 13.0183 98.2877 13.2528C98.3626 13.4874 98.3841 13.7358 98.3506 13.9797V17.1697H97.3606V14.1997C97.3606 13.4297 97.0306 13.0997 96.2606 13.0997C95.9688 13.0997 95.689 13.2156 95.4827 13.4219C95.2765 13.6282 95.1606 13.908 95.1606 14.1997V17.1697H94.0606V12.2197H94.1706ZM103.851 10.8997V12.2197H104.951V13.0997H103.851V15.6297C103.851 16.1797 104.071 16.3997 104.511 16.3997H104.951V17.1697C104.768 17.1851 104.584 17.1851 104.401 17.1697C103.301 17.1697 102.861 16.8397 102.861 15.8497V13.0997H102.201V12.2197H102.971V11.0097H104.071L103.851 10.8997ZM106.271 10.2397H107.261V13.0997C107.395 12.8122 107.615 12.5733 107.891 12.4158C108.167 12.2582 108.484 12.1898 108.801 12.2197C109.046 12.201 109.293 12.2375 109.522 12.3265C109.752 12.4155 109.959 12.5548 110.127 12.7341C110.296 12.9134 110.423 13.1283 110.498 13.3628C110.573 13.5974 110.594 13.8458 110.561 14.0897V17.2797H109.461V14.1997C109.461 13.4297 109.241 13.0997 108.471 13.0997C108.317 13.0843 108.162 13.1013 108.016 13.1497C107.869 13.198 107.735 13.2766 107.621 13.3803C107.507 13.484 107.415 13.6106 107.353 13.7517C107.291 13.8929 107.26 14.0456 107.261 14.1997V17.1697H106.271V10.2397ZM116.281 15.8497C116.152 16.3155 115.857 16.7181 115.451 16.9815C115.046 17.2449 114.559 17.351 114.081 17.2797C113.762 17.2834 113.446 17.2176 113.155 17.087C112.864 16.9564 112.605 16.7641 112.396 16.5235C112.186 16.2828 112.032 15.9995 111.943 15.6933C111.854 15.387 111.833 15.0651 111.881 14.7497C111.784 14.2692 111.85 13.7702 112.07 13.3317C112.289 12.8933 112.648 12.5407 113.091 12.3297L114.191 12.1097C115.511 12.1097 116.391 13.0997 116.391 14.6397V14.9697H112.761C112.745 15.1521 112.768 15.3357 112.828 15.5087C112.887 15.6818 112.982 15.8406 113.106 15.9751C113.23 16.1096 113.381 16.2167 113.549 16.2899C113.716 16.363 113.898 16.4004 114.081 16.3997C114.315 16.4526 114.56 16.4275 114.778 16.3282C114.996 16.2289 115.176 16.0609 115.291 15.8497H116.281ZM112.761 14.1997H115.291C115.297 14.0385 115.271 13.8775 115.215 13.7264C115.158 13.5753 115.071 13.437 114.961 13.3197C114.847 13.2032 114.71 13.1131 114.558 13.056C114.405 12.999 114.243 12.9763 114.081 12.9897C113.913 12.9744 113.743 12.9943 113.584 13.0483C113.424 13.1022 113.277 13.1889 113.153 13.3028C113.029 13.4167 112.93 13.5553 112.862 13.7098C112.794 13.8643 112.76 14.0312 112.761 14.1997Z"
            fill="white" />
    </g>
</svg>