<?xml version="1.0" encoding="UTF-8"?>
<svg id="Layer_1" data-name="Layer 1" xmlns="http://www.w3.org/2000/svg" viewBox="0 0 40 40">
  <defs>
    <style>
      .cls-1 {
        stroke: #0a2882;
        stroke-miterlimit: 10;
      }

      .cls-1, .cls-2 {
        fill: none;
        stroke-linecap: round;
        stroke-width: 2px;
      }

      .cls-2 {
        stroke: #cc0505;
        stroke-linejoin: round;
      }
    </style>
  </defs>
  <path class="cls-1" d="M25.23,20.18c0,2.89-2.34,5.23-5.23,5.23s-5.23-2.34-5.23-5.23,2.34-5.23,5.23-5.23c.26,0,.52.02.77.06"/>
  <path class="cls-1" d="M29.94,15.98c.55,1.29.85,2.71.85,4.2,0,5.96-4.83,10.79-10.79,10.79s-10.79-4.83-10.79-10.79,4.83-10.79,10.79-10.79c1.53,0,2.98.32,4.3.89"/>
  <path class="cls-1" d="M35.45,14.78c.59,1.69.91,3.51.91,5.4,0,9.04-7.33,16.37-16.37,16.37S3.63,29.21,3.63,20.18,10.96,3.81,20,3.81c2.05,0,4.01.38,5.82,1.06"/>
  <polyline class="cls-2" points="19.92 20.4 28.22 12.1 27.81 8.15 32.7 3.25 33.03 6.97 36.96 7.52 32.03 12.52 28.22 12.1"/>
</svg>