<svg width="152" height="46" viewBox="0 0 152 46" fill="none" xmlns="http://www.w3.org/2000/svg">
    <rect x="1" y="1" width="150" height="44" rx="8" stroke="white" />
    <mask id="mask0_614_1909" style="mask-type:luminance" maskUnits="userSpaceOnUse" x="1" y="1" width="150"
        height="44">
        <path d="M1.73242 1H150.629V45H1.73242V1Z" fill="white" />
    </mask>
    <g mask="url(#mask0_614_1909)">
        <path
            d="M80.1715 15.5564C79.1778 15.5564 78.3395 15.2077 77.6767 14.5224C77.3499 14.1891 77.0925 13.7944 76.9195 13.3613C76.7465 12.9282 76.6612 12.4652 76.6686 11.999C76.6686 10.998 77.0083 10.1499 77.6767 9.47785C78.3362 8.79145 79.1744 8.44385 80.1693 8.44385C81.152 8.44385 81.9903 8.79145 82.6642 9.47785C83.3325 10.1708 83.6722 11.0189 83.6722 11.999C83.6612 13.0022 83.3215 13.8503 82.6642 14.5191C82.0046 15.211 81.1664 15.5564 80.1715 15.5564ZM50.5862 15.5564C50.121 15.5632 49.6592 15.4763 49.2284 15.3009C48.7976 15.1255 48.4068 14.8652 48.0792 14.5356C47.3954 13.8613 47.0469 13.0077 47.0469 12.0012C47.0469 10.9947 47.3943 10.1422 48.0792 9.46685C48.7564 8.78925 49.6002 8.44605 50.5862 8.44605C51.0682 8.44605 51.5358 8.54175 51.9858 8.73645C52.427 8.92565 52.7855 9.18415 53.0513 9.49985L53.1175 9.57905L52.3741 10.3083L52.2969 10.2181C51.8778 9.71875 51.3175 9.47455 50.5752 9.47455C49.9123 9.47455 49.3344 9.71105 48.8579 10.1774C48.3781 10.646 48.1344 11.2609 48.1344 12.0034C48.1344 12.747 48.3781 13.3619 48.8579 13.8305C49.3344 14.2969 49.9123 14.5334 50.5752 14.5334C51.2811 14.5334 51.8767 14.2969 52.3399 13.8305C52.6134 13.5566 52.7822 13.1727 52.8428 12.6865H50.4627V11.6613H53.8642L53.8785 11.7548C53.9028 11.9275 53.9281 12.1057 53.9281 12.2696C53.9281 13.2156 53.6425 13.9823 53.0789 14.5466C52.4381 15.2165 51.5998 15.5564 50.5862 15.5564ZM89.9226 15.4112H88.8748L85.6608 10.2621L85.6884 11.1894V15.4079H84.6395V8.59125H85.8362L85.8693 8.64405L88.8914 13.4939L88.8627 12.5699V8.59015H89.9237V15.4101L89.9226 15.4112ZM72.2888 15.4112H71.2256V9.61755H69.3825V8.59015H74.1296V9.61645H72.2855V15.4101L72.2888 15.4112ZM68.5167 15.4112H67.4568V8.59015H68.5156V15.4101L68.5167 15.4112ZM62.5586 15.4112H61.4987V9.61755H59.6557V8.59015H64.4028V9.61645H62.5586V15.4112ZM58.9851 15.4002H54.9197V8.59015H58.984V9.61645H55.9818V11.4864H58.6906V12.5017H55.9818V14.3728H58.984V15.3991L58.9851 15.4002ZM78.4542 13.8162C78.9285 14.2914 79.5031 14.5312 80.1715 14.5312C80.8597 14.5312 81.4211 14.2969 81.8888 13.8162C82.3553 13.3509 82.5903 12.7382 82.5903 12.0012C82.5903 11.2642 82.3553 10.6482 81.8921 10.1862C81.6699 9.9565 81.403 9.77454 81.1076 9.65157C80.8123 9.5286 80.4948 9.46724 80.1748 9.47125C79.4866 9.47125 78.9252 9.70555 78.4597 10.1862C77.9943 10.6515 77.7583 11.2642 77.7583 12.0012C77.7583 12.7382 77.991 13.3542 78.4542 13.8162Z"
            fill="white" />
        <path fill-rule="evenodd" clip-rule="evenodd"
            d="M76.5707 24.9307C73.9821 24.9307 71.8832 26.8975 71.8832 29.6112C71.8832 32.2996 73.9954 34.2906 76.5707 34.2906C79.1593 34.2906 81.2582 32.3106 81.2582 29.6112C81.2582 26.8975 79.1593 24.9307 76.5707 24.9307ZM76.5707 32.436C75.1545 32.436 73.9347 31.2623 73.9347 29.6002C73.9347 27.9128 75.1568 26.7633 76.5707 26.7633C77.9869 26.7633 79.2057 27.9128 79.2057 29.6002C79.2079 31.2733 77.988 32.436 76.5707 32.436ZM66.3454 24.9307C63.7568 24.9307 61.6579 26.8975 61.6579 29.6112C61.6579 32.2996 63.77 34.2906 66.3454 34.2906C68.934 34.2906 71.0329 32.3106 71.0329 29.6112C71.0329 26.8975 68.9307 24.9307 66.3454 24.9307ZM66.3454 32.436C64.9292 32.436 63.7093 31.2623 63.7093 29.6002C63.7093 27.9128 64.9314 26.7633 66.3454 26.7633C67.7615 26.7633 68.9803 27.9128 68.9803 29.6002C68.9803 31.2733 67.7626 32.436 66.3454 32.436ZM54.1777 26.3607V28.3407H58.9248C58.7792 29.4517 58.4119 30.2723 57.8505 30.8344C57.1557 31.5307 56.0814 32.2886 54.1887 32.2886C51.2715 32.2886 48.9895 29.9291 48.9895 27.0086C48.9895 24.0859 51.2715 21.7275 54.1887 21.7275C55.7637 21.7275 56.9108 22.3501 57.7623 23.1454L59.1652 21.7407C57.9829 20.6055 56.4079 19.7354 54.1998 19.7354C50.1972 19.7354 46.8398 23.0002 46.8398 26.9965C46.8398 31.0049 50.195 34.2576 54.1998 34.2576C56.3615 34.2576 57.9829 33.5503 59.2645 32.2171C60.5704 30.9081 60.9851 29.0623 60.9851 27.5729C60.9851 27.1087 60.9487 26.6929 60.8748 26.3387H54.1744C54.1777 26.3354 54.1777 26.3607 54.1777 26.3607ZM103.946 27.9018C103.554 26.8513 102.371 24.9208 99.9443 24.9208C97.5398 24.9208 95.5391 26.8161 95.5391 29.6002C95.5391 32.2281 97.5167 34.2796 100.177 34.2796C102.313 34.2796 103.557 32.9706 104.07 32.2028L102.483 31.1391C101.957 31.9201 101.226 32.4338 100.188 32.4338C99.1391 32.4338 98.4045 31.9564 97.917 31.0148L104.165 28.4232C104.165 28.4265 103.946 27.9018 103.946 27.9018ZM97.5751 29.466C97.5255 27.6576 98.977 26.738 100.015 26.738C100.834 26.738 101.516 27.1417 101.749 27.7291L97.5751 29.466ZM92.4983 34.0002H94.5498V20.2502H92.4983V34.0002ZM89.1288 25.9702H89.0549C88.5917 25.4202 87.7126 24.9197 86.5898 24.9197C84.2582 24.9197 82.1108 26.9745 82.1108 29.6134C82.1108 32.2424 84.2472 34.2719 86.5887 34.2719C87.6983 34.2719 88.5917 33.7692 89.0549 33.2071H89.1288V33.8792C89.1288 35.6645 88.1759 36.6281 86.6384 36.6281C85.381 36.6281 84.6012 35.7228 84.2836 34.966L82.5001 35.7118C83.0119 36.946 84.3784 38.4739 86.6362 38.4739C89.0406 38.4739 91.0788 37.0549 91.0788 33.5965V25.2002H89.1398V25.9702H89.1288ZM86.7729 32.436C85.3568 32.436 84.1733 31.2513 84.1733 29.6134C84.1733 27.9623 85.3568 26.7666 86.7729 26.7666C88.1759 26.7666 89.2634 27.9766 89.2634 29.6134C89.2766 31.2524 88.1781 32.436 86.7729 32.436ZM113.551 20.2513H108.645V34.0002H110.697V28.7939H113.555C115.824 28.7939 118.058 27.1439 118.058 24.5281C118.058 21.9101 115.833 20.2513 113.551 20.2513ZM113.612 26.8733H110.695V22.1543H113.612C115.148 22.1543 116.016 23.4248 116.016 24.5138C116.016 25.5918 115.137 26.8733 113.612 26.8733ZM126.28 24.9065C124.79 24.9065 123.254 25.5676 122.619 27.0075L124.437 27.7643C124.829 27.0075 125.546 26.7501 126.305 26.7501C127.368 26.7501 128.442 27.3859 128.466 28.5211V28.6674C128.099 28.4584 127.294 28.1405 126.33 28.1405C124.366 28.1405 122.375 29.2163 122.375 31.2315C122.375 33.0784 123.985 34.2631 125.78 34.2631C127.157 34.2631 127.916 33.6405 128.389 32.9189H128.463V33.9837H130.442V28.7169C130.442 26.2639 128.623 24.9065 126.28 24.9065ZM126.023 32.436C125.352 32.436 124.412 32.1071 124.412 31.2623C124.412 30.1975 125.584 29.7949 126.585 29.7949C127.488 29.7949 127.916 29.9896 128.453 30.258C128.383 30.8535 128.097 31.403 127.65 31.8038C127.203 32.2047 126.625 32.4294 126.023 32.436ZM137.657 25.2002L135.301 31.1633H135.227L132.787 25.2002H130.58L134.241 33.536L132.155 38.1692H134.291L139.926 25.2002H137.657ZM119.189 34.0002H121.241V20.2502H119.189V34.0002Z"
            fill="white" />
        <path
            d="M12.8833 9.77564L26.1065 23.002L12.8899 36.2328C12.7609 35.9413 12.6914 35.5827 12.6914 35.1625V10.8404C12.6914 10.4246 12.7598 10.0682 12.8833 9.77564ZM13.6455 8.98034L26.8852 22.2221L31.0278 18.0751L15.4741 9.22784C14.7771 8.82964 14.1352 8.76694 13.6455 8.98034ZM32.0204 18.6416L27.6638 22.9998L32.0204 27.3602L36.8899 24.5882C38.4263 23.7104 38.4263 22.2782 36.8899 21.4125L32.0204 18.6416ZM31.0289 27.9267L26.8852 23.7797L13.6466 37.0347C14.1363 37.2437 14.7782 37.1755 15.473 36.7883L31.0289 27.9267Z"
            fill="white" />
    </g>
</svg>