<svg width="244" height="298" viewBox="0 0 244 298" fill="none" xmlns="http://www.w3.org/2000/svg">
    <path
        d="M228 298C236.837 298 244 290.837 244 282V150.182C244 141.345 236.837 134.182 228 134.182H108.583C101.956 134.182 96.583 128.809 96.583 122.182V78.4521C96.583 71.8247 101.956 66.4521 108.583 66.4521H139.45C144.973 66.452 149.45 61.9748 149.45 56.4521V10.5996C149.45 5.07684 144.973 0.599731 139.45 0.599609H93.5977C88.0748 0.599609 83.5977 5.07675 83.5977 10.5996V42.2666C83.5977 48.894 78.2251 54.2666 71.5977 54.2666H12C5.37258 54.2666 0 59.6392 0 66.2666V138.85C0 145.477 5.37258 150.85 12 150.85H68.1816C74.8091 150.85 80.1816 156.222 80.1816 162.85V282C80.1816 290.837 87.3451 298 96.1816 298H228Z"
        fill="#0A289B" />
</svg>