<svg width="354" height="599" viewBox="0 0 354 599" fill="none" xmlns="http://www.w3.org/2000/svg">
<path d="M218 0C224.627 1.09524e-06 230 5.37258 230 12V51C230 59.8366 237.163 67 246 67H338C346.837 67 354 74.1634 354 83V191C354 199.837 346.837 207 338 207H246C237.163 207 230 214.163 230 223V583C230 591.837 222.837 599 214 599H-163C-171.837 599 -179 591.837 -179 583V206C-179 197.163 -171.837 190 -163 190H198C206.837 190 214 182.837 214 174V99C214 90.1634 206.837 83 198 83H159C152.373 83 147 77.6274 147 71V12C147 5.37258 152.373 0 159 0H218Z" fill="#0A289B"/>
</svg>
