<svg width="672" height="703" viewBox="0 0 672 703" fill="none" xmlns="http://www.w3.org/2000/svg">
<path d="M691.068 0C697.696 0 703.068 5.37258 703.068 12V67.1641C703.068 73.7913 697.696 79.1641 691.068 79.1641H662.014C650.968 79.1641 642.014 88.1184 642.014 99.1641V222C642.014 231.941 633.955 240 624.014 240H550C538.954 240 530 248.954 530 260V683.103C530 694.148 521.046 703.103 510 703.103H20C8.9543 703.103 0 694.148 0 683.103V193.103C0 182.057 8.95431 173.103 20 173.103H443.014C454.059 173.103 463.014 164.148 463.014 153.103V79C463.014 69.0589 471.073 61 481.014 61H603.904C614.95 61 623.904 52.0457 623.904 41V12C623.904 5.3727 629.277 0.000197915 635.904 0H691.068Z" fill="#0A289B"/>
</svg>
