<svg width="440" height="395" viewBox="0 0 440 395" fill="none" xmlns="http://www.w3.org/2000/svg">
    <path
        d="M-6.83955e-06 238.529C0.000100399 231.902 5.37264 226.529 12 226.529L62.7314 226.529C69.3588 226.529 74.7313 231.902 74.7314 238.529L74.7314 274.53C74.7314 281.158 80.104 286.53 86.7314 286.53L119.859 286.53C126.487 286.53 131.859 281.158 131.859 274.53L131.859 28.001C131.859 12.537 144.395 0.000970251 159.859 0.000969575L411.999 0.000958553C427.463 0.000957877 439.999 12.537 439.999 28.001L439.999 287.436C439.999 302.899 427.463 315.436 411.999 315.436L172.221 315.436C165.593 315.436 160.221 320.808 160.221 327.436L160.221 381C160.22 388.732 153.953 395 146.221 395L68.6621 395C60.9303 395 54.6624 388.732 54.6621 381L54.6621 316.141C54.6621 309.513 49.2895 304.141 42.6621 304.141L12 304.141C5.37258 304.141 -4.20643e-06 298.768 -4.49613e-06 292.141L-6.83955e-06 238.529Z"
        fill="#0A289B" />
</svg>